<?xml version="1.0" encoding="utf-8"?>
<svg version="1.1" xmlns:xlink="http://www.w3.org/1999/xlink" width="129px" height="27px" xmlns="http://www.w3.org/2000/svg">
  <defs>
    <mask fill="white" id="clip37">
      <path d="M 0 27  L 0 0  L 50.3100000000003 0  L 53.2568807339447 0  L 63.2830188679246 0  L 129 0  L 129 27  L 60.6207951070336 27  L 0 27  Z " fill-rule="evenodd" />
    </mask>
  </defs>
  <g transform="matrix(1 0 0 1 -2864 -102 )">
    <path d="M 0 27  L 0 0  L 50.3100000000003 0  L 53.2568807339447 0  L 63.2830188679246 0  L 129 0  L 129 27  L 60.6207951070336 27  L 0 27  Z " fill-rule="nonzero" fill="#00bfbf" stroke="none" fill-opacity="0.949019607843137" transform="matrix(1 0 0 1 2864 102 )" />
    <path d="M 0 27  L 0 0  L 50.3100000000003 0  L 53.2568807339447 0  L 63.2830188679246 0  L 129 0  L 129 27  L 60.6207951070336 27  L 0 27  Z " stroke-width="2" stroke="#797979" fill="none" transform="matrix(1 0 0 1 2864 102 )" mask="url(#clip37)" />
  </g>
</svg>