<?xml version="1.0" encoding="utf-8"?>
<svg version="1.1" xmlns:xlink="http://www.w3.org/1999/xlink" width="158px" height="27px" xmlns="http://www.w3.org/2000/svg">
  <defs>
    <mask fill="white" id="clip39">
      <path d="M 0 27  L 0 0  L 61.6200000000002 0  L 65.2293577981649 0  L 77.5094339622642 0  L 158 0  L 158 27  L 0 27  Z " fill-rule="evenodd" />
    </mask>
  </defs>
  <g transform="matrix(1 0 0 1 -3112 -100 )">
    <path d="M 0 27  L 0 0  L 61.6200000000002 0  L 65.2293577981649 0  L 77.5094339622642 0  L 158 0  L 158 27  L 0 27  Z " fill-rule="nonzero" fill="#00bfbf" stroke="none" fill-opacity="0.949019607843137" transform="matrix(1 0 0 1 3112 100 )" />
    <path d="M 0 27  L 0 0  L 61.6200000000002 0  L 65.2293577981649 0  L 77.5094339622642 0  L 158 0  L 158 27  L 0 27  Z " stroke-width="2" stroke="#797979" fill="none" transform="matrix(1 0 0 1 3112 100 )" mask="url(#clip39)" />
  </g>
</svg>