<?xml version="1.0" encoding="utf-8"?>
<svg version="1.1" xmlns:xlink="http://www.w3.org/1999/xlink" width="107px" height="27px" xmlns="http://www.w3.org/2000/svg">
  <defs>
    <mask fill="white" id="clip41">
      <path d="M 0 27  L 0 0  L 41.7300000000002 0  L 44.1743119266053 0  L 52.4905660377359 0  L 107 0  L 107 27  L 50.282364933741 27  L 0 27  Z " fill-rule="evenodd" />
    </mask>
  </defs>
  <g transform="matrix(1 0 0 1 -1750 -102 )">
    <path d="M 0 27  L 0 0  L 41.7300000000002 0  L 44.1743119266053 0  L 52.4905660377359 0  L 107 0  L 107 27  L 50.282364933741 27  L 0 27  Z " fill-rule="nonzero" fill="#00bfbf" stroke="none" fill-opacity="0.949019607843137" transform="matrix(1 0 0 1 1750 102 )" />
    <path d="M 0 27  L 0 0  L 41.7300000000002 0  L 44.1743119266053 0  L 52.4905660377359 0  L 107 0  L 107 27  L 50.282364933741 27  L 0 27  Z " stroke-width="2" stroke="#797979" fill="none" transform="matrix(1 0 0 1 1750 102 )" mask="url(#clip41)" />
  </g>
</svg>