<?xml version="1.0" encoding="utf-8"?>
<svg version="1.1" xmlns:xlink="http://www.w3.org/1999/xlink" width="81px" height="27px" xmlns="http://www.w3.org/2000/svg">
  <defs>
    <mask fill="white" id="clip43">
      <path d="M 0 27  L 0 0  L 31.5900000000002 0  L 33.4403669724769 0  L 39.7358490566038 0  L 81 0  L 81 27  L 38.0642201834862 27  L 0 27  Z " fill-rule="evenodd" />
    </mask>
  </defs>
  <g transform="matrix(1 0 0 1 -2544 -102 )">
    <path d="M 0 27  L 0 0  L 31.5900000000002 0  L 33.4403669724769 0  L 39.7358490566038 0  L 81 0  L 81 27  L 38.0642201834862 27  L 0 27  Z " fill-rule="nonzero" fill="#00bfbf" stroke="none" fill-opacity="0.949019607843137" transform="matrix(1 0 0 1 2544 102 )" />
    <path d="M 0 27  L 0 0  L 31.5900000000002 0  L 33.4403669724769 0  L 39.7358490566038 0  L 81 0  L 81 27  L 38.0642201834862 27  L 0 27  Z " stroke-width="2" stroke="#797979" fill="none" transform="matrix(1 0 0 1 2544 102 )" mask="url(#clip43)" />
  </g>
</svg>