<?xml version="1.0" encoding="utf-8"?>
<svg version="1.1" xmlns:xlink="http://www.w3.org/1999/xlink" width="113px" height="27px" xmlns="http://www.w3.org/2000/svg">
  <defs>
    <mask fill="white" id="clip44">
      <path d="M 0 27  L 0 0  L 44.0700000000002 0  L 46.6513761467888 0  L 55.433962264151 0  L 113 0  L 113 27  L 53.1019367991845 27  L 0 27  Z " fill-rule="evenodd" />
    </mask>
  </defs>
  <g transform="matrix(1 0 0 1 -2635 -102 )">
    <path d="M 0 27  L 0 0  L 44.0700000000002 0  L 46.6513761467888 0  L 55.433962264151 0  L 113 0  L 113 27  L 53.1019367991845 27  L 0 27  Z " fill-rule="nonzero" fill="#00bfbf" stroke="none" fill-opacity="0.949019607843137" transform="matrix(1 0 0 1 2635 102 )" />
    <path d="M 0 27  L 0 0  L 44.0700000000002 0  L 46.6513761467888 0  L 55.433962264151 0  L 113 0  L 113 27  L 53.1019367991845 27  L 0 27  Z " stroke-width="2" stroke="#797979" fill="none" transform="matrix(1 0 0 1 2635 102 )" mask="url(#clip44)" />
  </g>
</svg>