<?xml version="1.0" encoding="utf-8"?>
<svg version="1.1" xmlns:xlink="http://www.w3.org/1999/xlink" width="90px" height="27px" xmlns="http://www.w3.org/2000/svg">
  <defs>
    <mask fill="white" id="clip45">
      <path d="M 0 27  L 0 0  L 35.1000000000002 0  L 37.1559633027521 0  L 44.1509433962265 0  L 90 0  L 90 27  L 42.2935779816513 27  L 0 27  Z " fill-rule="evenodd" />
    </mask>
  </defs>
  <g transform="matrix(1 0 0 1 -2763 -102 )">
    <path d="M 0 27  L 0 0  L 35.1000000000002 0  L 37.1559633027521 0  L 44.1509433962265 0  L 90 0  L 90 27  L 42.2935779816513 27  L 0 27  Z " fill-rule="nonzero" fill="#00bfbf" stroke="none" fill-opacity="0.949019607843137" transform="matrix(1 0 0 1 2763 102 )" />
    <path d="M 0 27  L 0 0  L 35.1000000000002 0  L 37.1559633027521 0  L 44.1509433962265 0  L 90 0  L 90 27  L 42.2935779816513 27  L 0 27  Z " stroke-width="2" stroke="#797979" fill="none" transform="matrix(1 0 0 1 2763 102 )" mask="url(#clip45)" />
  </g>
</svg>