<?xml version="1.0" encoding="utf-8"?>
<svg version="1.1" xmlns:xlink="http://www.w3.org/1999/xlink" width="110px" height="29px" xmlns="http://www.w3.org/2000/svg">
  <defs>
    <mask fill="white" id="clip54">
      <path d="M 0 29  L 0 0  L 45.4128440366973 0  L 110 0  L 110 29  L 70.4050632911392 29  L 64.0759493670886 29  L 0 29  Z " fill-rule="evenodd" />
    </mask>
  </defs>
  <g transform="matrix(1 0 0 1 -822 -101 )">
    <path d="M 0 29  L 0 0  L 45.4128440366973 0  L 110 0  L 110 29  L 70.4050632911392 29  L 64.0759493670886 29  L 0 29  Z " fill-rule="nonzero" fill="#ec808d" stroke="none" transform="matrix(1 0 0 1 822 101 )" />
    <path d="M 0 29  L 0 0  L 45.4128440366973 0  L 110 0  L 110 29  L 70.4050632911392 29  L 64.0759493670886 29  L 0 29  Z " stroke-width="2" stroke="#797979" fill="none" transform="matrix(1 0 0 1 822 101 )" mask="url(#clip54)" />
  </g>
</svg>