<?xml version="1.0" encoding="utf-8"?>
<svg version="1.1" xmlns:xlink="http://www.w3.org/1999/xlink" width="126px" height="29px" xmlns="http://www.w3.org/2000/svg">
  <defs>
    <mask fill="white" id="clip63">
      <path d="M 0 29  L 0 0  L 45.1703634885611 0  L 84 0  L 126 0  L 126 29  L 0 29  Z " fill-rule="evenodd" />
    </mask>
  </defs>
  <g transform="matrix(1 0 0 1 -402 -101 )">
    <path d="M 0 29  L 0 0  L 45.1703634885611 0  L 84 0  L 126 0  L 126 29  L 0 29  Z " fill-rule="nonzero" fill="#ec808d" stroke="none" transform="matrix(1 0 0 1 402 101 )" />
    <path d="M 0 29  L 0 0  L 45.1703634885611 0  L 84 0  L 126 0  L 126 29  L 0 29  Z " stroke-width="2" stroke="#797979" fill="none" transform="matrix(1 0 0 1 402 101 )" mask="url(#clip63)" />
  </g>
</svg>