<?xml version="1.0" encoding="utf-8"?>
<svg version="1.1" xmlns:xlink="http://www.w3.org/1999/xlink" width="97px" height="29px" xmlns="http://www.w3.org/2000/svg">
  <defs>
    <mask fill="white" id="clip66">
      <path d="M 0 29  L 0 0  L 34.7740099872256 0  L 64.6666666666667 0  L 97 0  L 97 29  L 0 29  Z " fill-rule="evenodd" />
    </mask>
  </defs>
  <g transform="matrix(1 0 0 1 -837 -101 )">
    <path d="M 0 29  L 0 0  L 34.7740099872256 0  L 64.6666666666667 0  L 97 0  L 97 29  L 0 29  Z " fill-rule="nonzero" fill="#ec808d" stroke="none" transform="matrix(1 0 0 1 837 101 )" />
    <path d="M 0 29  L 0 0  L 34.7740099872256 0  L 64.6666666666667 0  L 97 0  L 97 29  L 0 29  Z " stroke-width="2" stroke="#797979" fill="none" transform="matrix(1 0 0 1 837 101 )" mask="url(#clip66)" />
  </g>
</svg>