<?xml version="1.0" encoding="utf-8"?>
<svg version="1.1" xmlns:xlink="http://www.w3.org/1999/xlink" width="149px" height="27px" xmlns="http://www.w3.org/2000/svg">
  <defs>
    <mask fill="white" id="clip32">
      <path d="M 0 27  L 0 0  L 58.1100000000002 0  L 61.5137614678897 0  L 73.0943396226415 0  L 149 0  L 149 27  L 0 27  Z " fill-rule="evenodd" />
    </mask>
  </defs>
  <g transform="matrix(1 0 0 1 -2442 -102 )">
    <path d="M 0 27  L 0 0  L 58.1100000000002 0  L 61.5137614678897 0  L 73.0943396226415 0  L 149 0  L 149 27  L 0 27  Z " fill-rule="nonzero" fill="#00bfbf" stroke="none" fill-opacity="0.949019607843137" transform="matrix(1 0 0 1 2442 102 )" />
    <path d="M 0 27  L 0 0  L 58.1100000000002 0  L 61.5137614678897 0  L 73.0943396226415 0  L 149 0  L 149 27  L 0 27  Z " stroke-width="2" stroke="#797979" fill="none" transform="matrix(1 0 0 1 2442 102 )" mask="url(#clip32)" />
  </g>
</svg>