<?xml version="1.0" encoding="utf-8"?>
<svg version="1.1" xmlns:xlink="http://www.w3.org/1999/xlink" width="109px" height="27px" xmlns="http://www.w3.org/2000/svg">
  <defs>
    <mask fill="white" id="clip34">
      <path d="M 0 27  L 0 0  L 42.5100000000001 0  L 44.9999999999998 0  L 53.4716981132075 0  L 109 0  L 109 27  L 0 27  Z " fill-rule="evenodd" />
    </mask>
  </defs>
  <g transform="matrix(1 0 0 1 -2773 -102 )">
    <path d="M 0 27  L 0 0  L 42.5100000000001 0  L 44.9999999999998 0  L 53.4716981132075 0  L 109 0  L 109 27  L 0 27  Z " fill-rule="nonzero" fill="#00bfbf" stroke="none" fill-opacity="0.949019607843137" transform="matrix(1 0 0 1 2773 102 )" />
    <path d="M 0 27  L 0 0  L 42.5100000000001 0  L 44.9999999999998 0  L 53.4716981132075 0  L 109 0  L 109 27  L 0 27  Z " stroke-width="2" stroke="#797979" fill="none" transform="matrix(1 0 0 1 2773 102 )" mask="url(#clip34)" />
  </g>
</svg>