<?xml version="1.0" encoding="utf-8"?>
<svg version="1.1" xmlns:xlink="http://www.w3.org/1999/xlink" width="127px" height="29px" xmlns="http://www.w3.org/2000/svg">
  <defs>
    <mask fill="white" id="clip22">
      <path d="M 0 29  L 0 0  L 52.4311926605505 0  L 65.7387820512821 0  L 77.9503205128205 0  L 127 0  L 127 29  L 79.9855769230769 29  L 60.650641025641 29  L 0 29  Z " fill-rule="evenodd" />
    </mask>
  </defs>
  <g transform="matrix(1 0 0 1 -1128 -101 )">
    <path d="M 0 29  L 0 0  L 52.4311926605505 0  L 65.7387820512821 0  L 77.9503205128205 0  L 127 0  L 127 29  L 79.9855769230769 29  L 60.650641025641 29  L 0 29  Z " fill-rule="nonzero" fill="#00bfbf" stroke="none" fill-opacity="0.949019607843137" transform="matrix(1 0 0 1 1128 101 )" />
    <path d="M 0 29  L 0 0  L 52.4311926605505 0  L 65.7387820512821 0  L 77.9503205128205 0  L 127 0  L 127 29  L 79.9855769230769 29  L 60.650641025641 29  L 0 29  Z " stroke-width="2" stroke="#797979" fill="none" transform="matrix(1 0 0 1 1128 101 )" mask="url(#clip22)" />
  </g>
</svg>