<?xml version="1.0" encoding="utf-8"?>
<svg version="1.1" xmlns:xlink="http://www.w3.org/1999/xlink" width="78px" height="29px" xmlns="http://www.w3.org/2000/svg">
  <defs>
    <mask fill="white" id="clip26">
      <path d="M 0 29  L 0 0  L 30.42 0  L 32.2018348623853 0  L 78 0  L 78 29  L 0 29  Z " fill-rule="evenodd" />
    </mask>
  </defs>
  <g transform="matrix(1 0 0 1 -1881 -101 )">
    <path d="M 0 29  L 0 0  L 30.42 0  L 32.2018348623853 0  L 78 0  L 78 29  L 0 29  Z " fill-rule="nonzero" fill="#00bfbf" stroke="none" fill-opacity="0.949019607843137" transform="matrix(1 0 0 1 1881 101 )" />
    <path d="M 0 29  L 0 0  L 30.42 0  L 32.2018348623853 0  L 78 0  L 78 29  L 0 29  Z " stroke-width="2" stroke="#797979" fill="none" transform="matrix(1 0 0 1 1881 101 )" mask="url(#clip26)" />
  </g>
</svg>