<?xml version="1.0" encoding="utf-8"?>
<svg version="1.1" xmlns:xlink="http://www.w3.org/1999/xlink" width="115px" height="29px" xmlns="http://www.w3.org/2000/svg">
  <defs>
    <mask fill="white" id="clip27">
      <path d="M 0 29  L 0 0  L 44.85 0  L 47.4770642201834 0  L 115 0  L 115 29  L 0 29  Z " fill-rule="evenodd" />
    </mask>
  </defs>
  <g transform="matrix(1 0 0 1 -1982 -101 )">
    <path d="M 0 29  L 0 0  L 44.85 0  L 47.4770642201834 0  L 115 0  L 115 29  L 0 29  Z " fill-rule="nonzero" fill="#00bfbf" stroke="none" fill-opacity="0.949019607843137" transform="matrix(1 0 0 1 1982 101 )" />
    <path d="M 0 29  L 0 0  L 44.85 0  L 47.4770642201834 0  L 115 0  L 115 29  L 0 29  Z " stroke-width="2" stroke="#797979" fill="none" transform="matrix(1 0 0 1 1982 101 )" mask="url(#clip27)" />
  </g>
</svg>